<svg width="317" height="30" viewBox="0 0 317 30" fill="none" xmlns="http://www.w3.org/2000/svg">
<path d="M4.08 29C3.04 29 2.24 28.72 1.68 28.16C1.12 27.6 0.84 26.8 0.84 25.76V4.04C0.84 3 1.12 2.2 1.68 1.64C2.24 1.08 3.04 0.799998 4.08 0.799998H13.76C15.76 0.799998 17.4667 1.09333 18.88 1.68C20.2933 2.26667 21.36 3.10667 22.08 4.2C22.8267 5.29333 23.2 6.6 23.2 8.12C23.2 9.8 22.72 11.2267 21.76 12.4C20.8 13.5733 19.48 14.36 17.8 14.76V14.12C19.7467 14.4667 21.2533 15.24 22.32 16.44C23.4133 17.6133 23.96 19.1467 23.96 21.04C23.96 23.5467 23.0933 25.5067 21.36 26.92C19.6267 28.3067 17.24 29 14.2 29H4.08ZM6.76 24.4H13.36C14.96 24.4 16.1333 24.0933 16.88 23.48C17.6267 22.84 18 21.9067 18 20.68C18 19.4533 17.6267 18.5333 16.88 17.92C16.1333 17.3067 14.96 17 13.36 17H6.76V24.4ZM6.76 12.4H12.68C14.2267 12.4 15.3733 12.1067 16.12 11.52C16.8667 10.9333 17.24 10.0533 17.24 8.88C17.24 7.73333 16.8667 6.86667 16.12 6.28C15.3733 5.69333 14.2267 5.4 12.68 5.4H6.76V12.4ZM31.8125 29C30.7992 29 30.0125 28.72 29.4525 28.16C28.9192 27.6 28.6525 26.8267 28.6525 25.84V3.88C28.6525 2.84 28.9192 2.05333 29.4525 1.52C29.9858 0.986666 30.7592 0.719999 31.7725 0.719999C32.7592 0.719999 33.5192 0.986666 34.0525 1.52C34.5858 2.05333 34.8525 2.84 34.8525 3.88V23.76H45.5725C46.4258 23.76 47.0792 23.9867 47.5325 24.44C48.0125 24.8933 48.2525 25.5333 48.2525 26.36C48.2525 27.2133 48.0125 27.8667 47.5325 28.32C47.0792 28.7733 46.4258 29 45.5725 29H31.8125ZM51.8744 29.36C51.1277 29.36 50.5144 29.1867 50.0344 28.84C49.581 28.4933 49.2877 28.0267 49.1544 27.44C49.0477 26.8533 49.1677 26.2 49.5144 25.48L59.7544 3.04C60.181 2.13333 60.6877 1.48 61.2744 1.08C61.861 0.653332 62.541 0.439998 63.3144 0.439998C64.0877 0.439998 64.7677 0.653332 65.3544 1.08C65.941 1.48 66.4344 2.13333 66.8344 3.04L77.1544 25.48C77.501 26.2 77.621 26.8667 77.5144 27.48C77.4344 28.0667 77.1677 28.5333 76.7144 28.88C76.261 29.2 75.6744 29.36 74.9544 29.36C74.0477 29.36 73.341 29.1467 72.8344 28.72C72.3544 28.2933 71.9277 27.6267 71.5544 26.72L69.1544 21.16L71.6344 22.88H54.9544L57.4344 21.16L55.0744 26.72C54.6744 27.6533 54.2477 28.3333 53.7944 28.76C53.3677 29.16 52.7277 29.36 51.8744 29.36ZM63.2344 7.4L58.1144 19.6L57.0344 18.04H69.5544L68.4744 19.6L63.3144 7.4H63.2344ZM94.2075 29.44C91.1675 29.44 88.5675 28.84 86.4075 27.64C84.2475 26.44 82.5808 24.76 81.4075 22.6C80.2608 20.4133 79.6875 17.84 79.6875 14.88C79.6875 12.6667 80.0075 10.68 80.6475 8.92C81.3142 7.13333 82.2742 5.61333 83.5275 4.36C84.7808 3.08 86.3008 2.09333 88.0875 1.4C89.9008 0.706665 91.9408 0.359999 94.2075 0.359999C95.5408 0.359999 96.8875 0.533333 98.2475 0.88C99.6342 1.2 100.834 1.66666 101.848 2.28C102.514 2.65333 102.968 3.12 103.208 3.68C103.448 4.24 103.514 4.8 103.408 5.36C103.328 5.92 103.101 6.4 102.728 6.8C102.381 7.2 101.941 7.45333 101.408 7.56C100.874 7.66667 100.274 7.54667 99.6075 7.2C98.8075 6.72 97.9675 6.37333 97.0875 6.16C96.2075 5.94666 95.3142 5.84 94.4075 5.84C92.6208 5.84 91.1142 6.2 89.8875 6.92C88.6875 7.61333 87.7808 8.62667 87.1675 9.96C86.5542 11.2933 86.2475 12.9333 86.2475 14.88C86.2475 16.8 86.5542 18.44 87.1675 19.8C87.7808 21.16 88.6875 22.2 89.8875 22.92C91.1142 23.6133 92.6208 23.96 94.4075 23.96C95.2608 23.96 96.1275 23.8533 97.0075 23.64C97.9142 23.4267 98.7808 23.0933 99.6075 22.64C100.301 22.2933 100.914 22.1733 101.448 22.28C102.008 22.36 102.461 22.6 102.808 23C103.181 23.3733 103.408 23.8267 103.488 24.36C103.594 24.8933 103.541 25.4267 103.328 25.96C103.114 26.4933 102.714 26.9467 102.128 27.32C101.141 27.9867 99.9275 28.5067 98.4875 28.88C97.0475 29.2533 95.6208 29.44 94.2075 29.44ZM110.991 29.36C109.978 29.36 109.205 29.08 108.671 28.52C108.138 27.96 107.871 27.1733 107.871 26.16V3.6C107.871 2.58666 108.138 1.81333 108.671 1.28C109.205 0.719999 109.978 0.439998 110.991 0.439998C111.978 0.439998 112.738 0.719999 113.271 1.28C113.805 1.81333 114.071 2.58666 114.071 3.6V13.08H114.151L124.791 1.96C125.245 1.48 125.711 1.12 126.191 0.88C126.698 0.613332 127.271 0.479998 127.911 0.479998C128.845 0.479998 129.511 0.719998 129.911 1.2C130.338 1.68 130.525 2.24 130.471 2.88C130.418 3.52 130.125 4.12 129.591 4.68L118.911 15.6L118.951 12.92L130.151 24.88C130.765 25.5467 131.071 26.2267 131.071 26.92C131.098 27.6133 130.871 28.2 130.391 28.68C129.938 29.1333 129.258 29.36 128.351 29.36C127.578 29.36 126.951 29.2 126.471 28.88C126.018 28.56 125.511 28.0933 124.951 27.48L114.151 16.12H114.071V26.16C114.071 27.1733 113.805 27.96 113.271 28.52C112.765 29.08 112.005 29.36 110.991 29.36ZM156.662 29.44C155.542 29.44 154.396 29.3467 153.222 29.16C152.076 29 150.969 28.76 149.902 28.44C148.862 28.12 147.929 27.72 147.102 27.24C146.516 26.92 146.102 26.5067 145.862 26C145.622 25.4667 145.529 24.9333 145.582 24.4C145.662 23.8667 145.862 23.4 146.182 23C146.529 22.5733 146.956 22.3067 147.462 22.2C147.996 22.0667 148.582 22.16 149.222 22.48C150.316 23.0933 151.502 23.5467 152.782 23.84C154.089 24.1333 155.382 24.28 156.662 24.28C158.609 24.28 159.996 23.9867 160.822 23.4C161.649 22.7867 162.062 22.0267 162.062 21.12C162.062 20.3467 161.769 19.7333 161.182 19.28C160.596 18.8267 159.569 18.44 158.102 18.12L153.582 17.16C151.022 16.6267 149.116 15.72 147.862 14.44C146.636 13.1333 146.022 11.4267 146.022 9.32C146.022 7.98667 146.302 6.77333 146.862 5.68C147.422 4.58667 148.209 3.64 149.222 2.84C150.236 2.04 151.436 1.42667 152.822 0.999998C154.236 0.573332 155.782 0.359999 157.462 0.359999C158.956 0.359999 160.422 0.546666 161.862 0.919999C163.302 1.26667 164.569 1.78667 165.662 2.48C166.196 2.8 166.556 3.21333 166.742 3.72C166.956 4.2 167.022 4.69333 166.942 5.2C166.889 5.68 166.689 6.10667 166.342 6.48C166.022 6.85333 165.609 7.09333 165.102 7.2C164.596 7.30667 163.982 7.18667 163.262 6.84C162.382 6.38667 161.449 6.05333 160.462 5.84C159.476 5.62667 158.462 5.52 157.422 5.52C156.302 5.52 155.342 5.66667 154.542 5.96C153.769 6.25333 153.169 6.66667 152.742 7.2C152.342 7.73333 152.142 8.34667 152.142 9.04C152.142 9.81333 152.422 10.44 152.982 10.92C153.542 11.4 154.516 11.7867 155.902 12.08L160.422 13.04C163.036 13.6 164.982 14.5067 166.262 15.76C167.542 16.9867 168.182 18.6133 168.182 20.64C168.182 21.9733 167.916 23.1867 167.382 24.28C166.849 25.3467 166.076 26.2667 165.062 27.04C164.049 27.8133 162.836 28.4133 161.422 28.84C160.009 29.24 158.422 29.44 156.662 29.44ZM175.327 29.36C174.314 29.36 173.541 29.08 173.007 28.52C172.474 27.96 172.207 27.1733 172.207 26.16V3.64C172.207 2.62667 172.474 1.84 173.007 1.28C173.541 0.719999 174.314 0.439998 175.327 0.439998C176.314 0.439998 177.074 0.719999 177.607 1.28C178.141 1.84 178.407 2.62667 178.407 3.64V12.12H191.527V3.64C191.527 2.62667 191.794 1.84 192.327 1.28C192.861 0.719999 193.621 0.439998 194.607 0.439998C195.621 0.439998 196.394 0.719999 196.927 1.28C197.461 1.84 197.727 2.62667 197.727 3.64V26.16C197.727 27.1733 197.461 27.96 196.927 28.52C196.394 29.08 195.621 29.36 194.607 29.36C193.621 29.36 192.861 29.08 192.327 28.52C191.794 27.96 191.527 27.1733 191.527 26.16V17.28H178.407V26.16C178.407 27.1733 178.141 27.96 177.607 28.52C177.101 29.08 176.341 29.36 175.327 29.36ZM206.658 29C205.618 29 204.818 28.72 204.258 28.16C203.698 27.6 203.418 26.8 203.418 25.76V4.04C203.418 3 203.698 2.2 204.258 1.64C204.818 1.08 205.618 0.799998 206.658 0.799998H220.618C221.418 0.799998 222.018 1.01333 222.418 1.44C222.845 1.84 223.058 2.42667 223.058 3.2C223.058 4 222.845 4.61333 222.418 5.04C222.018 5.44 221.418 5.64 220.618 5.64H209.338V12.24H219.698C220.525 12.24 221.138 12.4533 221.538 12.88C221.965 13.28 222.178 13.88 222.178 14.68C222.178 15.48 221.965 16.0933 221.538 16.52C221.138 16.92 220.525 17.12 219.698 17.12H209.338V24.16H220.618C221.418 24.16 222.018 24.3733 222.418 24.8C222.845 25.2 223.058 25.7867 223.058 26.56C223.058 27.36 222.845 27.9733 222.418 28.4C222.018 28.8 221.418 29 220.618 29H206.658ZM230.877 29C229.837 29 229.037 28.72 228.477 28.16C227.917 27.6 227.637 26.8 227.637 25.76V4.04C227.637 3 227.917 2.2 228.477 1.64C229.037 1.08 229.837 0.799998 230.877 0.799998H244.837C245.637 0.799998 246.237 1.01333 246.637 1.44C247.064 1.84 247.277 2.42667 247.277 3.2C247.277 4 247.064 4.61333 246.637 5.04C246.237 5.44 245.637 5.64 244.837 5.64H233.557V12.24H243.917C244.744 12.24 245.357 12.4533 245.757 12.88C246.184 13.28 246.397 13.88 246.397 14.68C246.397 15.48 246.184 16.0933 245.757 16.52C245.357 16.92 244.744 17.12 243.917 17.12H233.557V24.16H244.837C245.637 24.16 246.237 24.3733 246.637 24.8C247.064 25.2 247.277 25.7867 247.277 26.56C247.277 27.36 247.064 27.9733 246.637 28.4C246.237 28.8 245.637 29 244.837 29H230.877ZM254.976 29.36C253.962 29.36 253.189 29.08 252.656 28.52C252.122 27.96 251.856 27.1733 251.856 26.16V3.96C251.856 2.92 252.122 2.13333 252.656 1.6C253.216 1.06666 254.002 0.799998 255.016 0.799998H264.736C267.882 0.799998 270.309 1.6 272.016 3.2C273.722 4.77333 274.576 6.97333 274.576 9.8C274.576 12.6267 273.722 14.84 272.016 16.44C270.309 18.04 267.882 18.84 264.736 18.84H258.056V26.16C258.056 27.1733 257.789 27.96 257.256 28.52C256.749 29.08 255.989 29.36 254.976 29.36ZM258.056 14.04H263.696C265.296 14.04 266.509 13.68 267.336 12.96C268.189 12.24 268.616 11.1867 268.616 9.8C268.616 8.41333 268.189 7.37333 267.336 6.68C266.509 5.98666 265.296 5.64 263.696 5.64H258.056V14.04Z" fill="#F97918"/>
<path d="M278.722 29.12C278.082 29.12 277.57 28.928 277.186 28.544C276.818 28.16 276.634 27.664 276.634 27.056C276.634 26.464 276.818 25.984 277.186 25.616C277.57 25.232 278.082 25.04 278.722 25.04C279.362 25.04 279.858 25.232 280.21 25.616C280.578 25.984 280.762 26.464 280.762 27.056C280.762 27.664 280.578 28.16 280.21 28.544C279.858 28.928 279.362 29.12 278.722 29.12ZM285.245 29.216C284.685 29.216 284.253 29.064 283.949 28.76C283.661 28.44 283.517 27.992 283.517 27.416V13.736C283.517 13.128 283.661 12.664 283.949 12.344C284.253 12.024 284.653 11.864 285.149 11.864C285.581 11.864 285.909 11.952 286.133 12.128C286.373 12.288 286.645 12.56 286.949 12.944L295.372 23.672H294.725V13.64C294.725 13.08 294.869 12.648 295.157 12.344C295.461 12.024 295.893 11.864 296.453 11.864C297.013 11.864 297.437 12.024 297.725 12.344C298.029 12.648 298.181 13.08 298.181 13.64V27.488C298.181 28.016 298.045 28.44 297.773 28.76C297.501 29.064 297.133 29.216 296.669 29.216C296.221 29.216 295.861 29.128 295.589 28.952C295.333 28.776 295.053 28.496 294.749 28.112L286.349 17.384H286.973V27.416C286.973 27.992 286.829 28.44 286.541 28.76C286.253 29.064 285.821 29.216 285.245 29.216ZM309.963 29.264C308.059 29.264 306.443 28.904 305.115 28.184C303.803 27.464 302.803 26.456 302.115 25.16C301.427 23.864 301.083 22.344 301.083 20.6C301.083 19.256 301.283 18.048 301.683 16.976C302.099 15.888 302.691 14.968 303.459 14.216C304.243 13.448 305.187 12.856 306.291 12.44C307.411 12.024 308.675 11.816 310.083 11.816C310.947 11.816 311.811 11.912 312.675 12.104C313.539 12.296 314.371 12.616 315.171 13.064C315.507 13.256 315.731 13.504 315.843 13.808C315.971 14.096 316.003 14.408 315.939 14.744C315.891 15.064 315.763 15.352 315.555 15.608C315.363 15.848 315.107 16.008 314.787 16.088C314.483 16.152 314.131 16.088 313.731 15.896C313.203 15.608 312.643 15.4 312.051 15.272C311.459 15.128 310.811 15.056 310.107 15.056C308.971 15.056 308.019 15.272 307.251 15.704C306.483 16.12 305.907 16.744 305.523 17.576C305.155 18.392 304.971 19.4 304.971 20.6C304.971 22.408 305.403 23.776 306.267 24.704C307.147 25.632 308.443 26.096 310.155 26.096C310.731 26.096 311.323 26.04 311.931 25.928C312.539 25.816 313.139 25.656 313.731 25.448L313.035 26.96V22.352H310.875C310.395 22.352 310.027 22.232 309.771 21.992C309.515 21.752 309.387 21.424 309.387 21.008C309.387 20.576 309.515 20.248 309.771 20.024C310.027 19.784 310.395 19.664 310.875 19.664H314.643C315.123 19.664 315.483 19.792 315.723 20.048C315.979 20.304 316.107 20.672 316.107 21.152V26.72C316.107 27.136 316.027 27.488 315.867 27.776C315.707 28.064 315.435 28.272 315.051 28.4C314.331 28.656 313.523 28.864 312.627 29.024C311.731 29.184 310.843 29.264 309.963 29.264Z" fill="black"/>
</svg>
